<svg xmlns="http://www.w3.org/2000/svg" xmlns:xlink="http://www.w3.org/1999/xlink" width="100" zoomAndPan="magnify" viewBox="0 0 75 93.749996" height="125" preserveAspectRatio="xMidYMid meet" version="1.0"><defs><clipPath id="668204da2c"><path d="M 0.101562 0 L 74.898438 0 L 74.898438 93.5 L 0.101562 93.5 Z M 0.101562 0 " clip-rule="nonzero"/></clipPath><clipPath id="ab5daec071"><path d="M 0.101562 34 L 24 34 L 24 59 L 0.101562 59 Z M 0.101562 34 " clip-rule="nonzero"/></clipPath></defs><g clip-path="url(#668204da2c)"><path fill="#ffffff" d="M 0.101562 0 L 74.898438 0 L 74.898438 93.5 L 0.101562 93.5 Z M 0.101562 0 " fill-opacity="1" fill-rule="nonzero"/><path fill="#ffffff" d="M 0.101562 0 L 74.898438 0 L 74.898438 93.5 L 0.101562 93.5 Z M 0.101562 0 " fill-opacity="1" fill-rule="nonzero"/></g><path fill="#000000" d="M 72.9375 56.195312 C 72.464844 54.808594 69.367188 53.796875 67.960938 53.167969 C 67.269531 52.859375 66.488281 52.675781 66.078125 52.359375 L 64.191406 50.542969 L 65.152344 47.914062 C 66.300781 47.585938 66.816406 44.894531 66.078125 44.824219 C 66.292969 43.636719 66.503906 42.082031 66.332031 40.863281 L 66.332031 39.707031 L 66.914062 39.453125 L 68.679688 38.691406 C 69.140625 38.492188 69.140625 38.164062 68.679688 37.964844 L 61.871094 35.019531 C 61.410156 34.820312 60.652344 34.820312 60.191406 35.019531 L 53.382812 37.964844 C 52.921875 38.164062 52.921875 38.492188 53.382812 38.691406 L 53.898438 38.914062 L 53.855469 39.261719 C 53.660156 39.292969 53.507812 39.464844 53.507812 39.671875 C 53.507812 39.859375 53.628906 40.019531 53.796875 40.070312 L 53.484375 44.457031 C 53.472656 44.640625 53.507812 44.933594 53.566406 45.109375 L 53.820312 45.871094 C 53.878906 46.046875 53.972656 46.046875 54.03125 45.871094 L 54.285156 45.109375 C 54.34375 44.933594 54.378906 44.640625 54.367188 44.457031 L 54.054688 40.070312 C 54.222656 40.015625 54.34375 39.859375 54.34375 39.671875 C 54.34375 39.464844 54.191406 39.292969 53.996094 39.261719 L 53.953125 38.9375 L 55.144531 39.453125 L 55.730469 39.707031 L 55.730469 40.859375 C 55.558594 42.078125 55.765625 43.636719 55.984375 44.828125 C 55.246094 44.894531 55.777344 47.59375 56.925781 47.921875 L 57.867188 50.542969 L 55.984375 52.359375 C 55.574219 52.675781 54.792969 52.859375 54.101562 53.167969 C 53.003906 53.65625 50.890625 54.378906 49.78125 55.332031 C 51.40625 56.128906 52.867188 57.117188 53.332031 58.476562 C 53.332031 58.480469 53.335938 58.484375 53.335938 58.488281 L 73.085938 58.488281 C 73.085938 58.484375 73.085938 58.484375 73.085938 58.484375 C 73.050781 57.613281 73.207031 56.980469 72.9375 56.195312 Z M 72.9375 56.195312 " fill-opacity="1" fill-rule="nonzero"/><g clip-path="url(#ab5daec071)"><path fill="#000000" d="M 19.390625 53.167969 C 18.703125 52.859375 17.921875 52.675781 17.507812 52.359375 L 15.625 50.542969 L 16.585938 47.914062 C 17.734375 47.585938 18.246094 44.894531 17.507812 44.824219 C 17.726562 43.636719 17.933594 42.082031 17.765625 40.863281 L 17.765625 39.707031 L 18.347656 39.453125 L 20.109375 38.691406 C 20.570312 38.492188 20.570312 38.164062 20.109375 37.964844 L 13.300781 35.019531 C 12.839844 34.820312 12.085938 34.820312 11.625 35.019531 L 4.816406 37.964844 C 4.355469 38.164062 4.355469 38.492188 4.816406 38.691406 L 5.332031 38.914062 L 5.289062 39.261719 C 5.089844 39.292969 4.941406 39.464844 4.941406 39.671875 C 4.941406 39.859375 5.0625 40.019531 5.230469 40.070312 L 4.917969 44.457031 C 4.902344 44.640625 4.941406 44.933594 5 45.109375 L 5.253906 45.871094 C 5.308594 46.046875 5.402344 46.046875 5.460938 45.871094 L 5.714844 45.109375 C 5.773438 44.933594 5.8125 44.640625 5.796875 44.457031 L 5.484375 40.070312 C 5.652344 40.015625 5.777344 39.859375 5.777344 39.671875 C 5.777344 39.464844 5.625 39.292969 5.425781 39.261719 L 5.386719 38.9375 L 6.578125 39.453125 L 7.160156 39.707031 L 7.160156 40.859375 C 6.988281 42.078125 7.199219 43.636719 7.417969 44.828125 C 6.675781 44.894531 7.210938 47.59375 8.359375 47.921875 L 9.300781 50.546875 L 7.417969 52.359375 C 7.003906 52.675781 6.222656 52.859375 5.535156 53.167969 C 4.125 53.796875 1.03125 54.808594 0.554688 56.195312 C 0.289062 56.980469 0.441406 57.613281 0.40625 58.484375 C 0.40625 58.484375 0.40625 58.488281 0.40625 58.488281 L 20.15625 58.488281 C 20.15625 58.484375 20.160156 58.480469 20.160156 58.476562 C 20.625 57.117188 22.085938 56.128906 23.710938 55.332031 C 22.601562 54.378906 20.488281 53.65625 19.390625 53.167969 Z M 19.390625 53.167969 " fill-opacity="1" fill-rule="nonzero"/></g><path fill="#000000" d="M 52.054688 58.914062 C 51.445312 57.128906 47.464844 55.832031 45.65625 55.023438 C 44.769531 54.628906 43.761719 54.386719 43.234375 53.984375 L 40.8125 51.648438 L 42.046875 48.269531 C 43.523438 47.84375 44.183594 44.382812 43.234375 44.296875 C 43.515625 42.769531 43.78125 40.769531 43.5625 39.203125 L 43.5625 37.714844 L 44.3125 37.390625 L 46.578125 36.40625 C 47.171875 36.152344 47.171875 35.730469 46.578125 35.476562 L 37.824219 31.6875 C 37.527344 31.558594 37.136719 31.496094 36.746094 31.496094 C 36.355469 31.496094 35.964844 31.558594 35.667969 31.6875 L 26.914062 35.476562 C 26.324219 35.730469 26.324219 36.152344 26.914062 36.40625 L 27.578125 36.695312 L 27.523438 37.140625 C 27.269531 37.183594 27.074219 37.40625 27.074219 37.671875 C 27.074219 37.910156 27.230469 38.113281 27.445312 38.183594 L 27.042969 43.824219 C 27.027344 44.058594 27.074219 44.433594 27.148438 44.660156 L 27.476562 45.640625 C 27.515625 45.753906 27.5625 45.808594 27.613281 45.808594 C 27.660156 45.808594 27.710938 45.753906 27.746094 45.640625 L 28.074219 44.660156 C 28.148438 44.433594 28.195312 44.058594 28.179688 43.824219 L 27.777344 38.183594 C 27.992188 38.113281 28.148438 37.910156 28.148438 37.671875 C 28.148438 37.40625 27.957031 37.183594 27.703125 37.140625 L 27.648438 36.726562 L 29.179688 37.390625 L 29.933594 37.714844 L 29.933594 39.191406 C 29.710938 40.761719 29.980469 42.765625 30.261719 44.296875 C 29.308594 44.382812 29.996094 47.851562 31.472656 48.273438 L 32.683594 51.648438 L 30.261719 53.984375 C 29.730469 54.386719 28.726562 54.625 27.839844 55.019531 C 26.027344 55.828125 22.046875 57.128906 21.4375 58.914062 C 21.09375 59.921875 21.292969 60.738281 21.246094 61.855469 C 21.246094 61.855469 21.246094 61.859375 21.246094 61.863281 L 52.246094 61.863281 C 52.246094 61.859375 52.246094 61.855469 52.246094 61.855469 C 52.199219 60.738281 52.402344 59.921875 52.054688 58.914062 Z M 52.054688 58.914062 " fill-opacity="1" fill-rule="nonzero"/></svg>