<svg xmlns="http://www.w3.org/2000/svg" xmlns:xlink="http://www.w3.org/1999/xlink" width="64" zoomAndPan="magnify" viewBox="0 0 48 60" height="80" preserveAspectRatio="xMidYMid meet" version="1.0"><rect x="-4.8" width="57.6" fill="#ffffff" y="-6" height="72" fill-opacity="1"/><rect x="-4.8" width="57.6" fill="#ffffff" y="-6" height="72" fill-opacity="1"/><path fill="#000000" d="M 42.597656 1.894531 L 4.628906 1.894531 C 4.25 1.894531 3.886719 1.96875 3.539062 2.113281 C 3.1875 2.253906 2.882812 2.460938 2.613281 2.726562 C 2.347656 2.992188 2.140625 3.300781 1.996094 3.648438 C 1.851562 3.996094 1.78125 4.359375 1.78125 4.734375 L 1.78125 55.863281 C 1.78125 56.242188 1.851562 56.605469 1.996094 56.953125 C 2.140625 57.300781 2.347656 57.605469 2.613281 57.875 C 2.882812 58.140625 3.1875 58.34375 3.539062 58.488281 C 3.886719 58.632812 4.25 58.707031 4.628906 58.707031 L 42.597656 58.707031 C 42.972656 58.707031 43.335938 58.632812 43.6875 58.488281 C 44.035156 58.34375 44.34375 58.140625 44.609375 57.875 C 44.878906 57.605469 45.082031 57.300781 45.226562 56.953125 C 45.371094 56.605469 45.445312 56.242188 45.445312 55.863281 L 45.445312 4.734375 C 45.445312 4.359375 45.371094 3.996094 45.226562 3.648438 C 45.082031 3.300781 44.878906 2.992188 44.609375 2.726562 C 44.34375 2.460938 44.035156 2.253906 43.6875 2.113281 C 43.335938 1.96875 42.972656 1.894531 42.597656 1.894531 Z M 3.679688 55.863281 L 3.679688 4.734375 C 3.679688 4.472656 3.769531 4.25 3.957031 4.066406 C 4.140625 3.882812 4.367188 3.789062 4.628906 3.789062 L 7.476562 3.789062 L 7.476562 56.8125 L 4.628906 56.8125 C 4.367188 56.8125 4.140625 56.71875 3.957031 56.535156 C 3.769531 56.347656 3.679688 56.125 3.679688 55.863281 Z M 43.546875 55.863281 C 43.546875 56.125 43.453125 56.347656 43.269531 56.535156 C 43.082031 56.71875 42.859375 56.8125 42.597656 56.8125 L 9.375 56.8125 L 9.375 3.789062 L 42.597656 3.789062 C 42.859375 3.789062 43.082031 3.882812 43.269531 4.066406 C 43.453125 4.25 43.546875 4.472656 43.546875 4.734375 Z M 43.546875 55.863281 " fill-opacity="1" fill-rule="nonzero"/><path fill="#000000" d="M 42.027344 12.386719 L 26.839844 5.757812 C 26.585938 5.648438 26.332031 5.648438 26.082031 5.757812 L 10.894531 12.386719 C 10.71875 12.460938 10.578125 12.578125 10.472656 12.734375 C 10.367188 12.894531 10.316406 13.066406 10.316406 13.257812 C 10.316406 13.445312 10.367188 13.621094 10.472656 13.777344 C 10.578125 13.9375 10.71875 14.054688 10.894531 14.128906 L 16.019531 16.363281 L 16.019531 23.671875 C 16.019531 23.867188 16.074219 24.042969 16.183594 24.203125 C 16.289062 24.363281 16.4375 24.480469 16.617188 24.554688 L 26.109375 28.339844 C 26.34375 28.433594 26.578125 28.433594 26.8125 28.339844 L 36.304688 24.554688 C 36.484375 24.480469 36.628906 24.363281 36.738281 24.203125 C 36.847656 24.042969 36.902344 23.867188 36.902344 23.671875 L 36.902344 16.363281 L 42.027344 14.128906 C 42.203125 14.054688 42.34375 13.9375 42.445312 13.777344 C 42.550781 13.621094 42.605469 13.445312 42.605469 13.257812 C 42.605469 13.066406 42.550781 12.894531 42.445312 12.734375 C 42.34375 12.578125 42.203125 12.460938 42.027344 12.386719 Z M 35.003906 23.027344 L 26.460938 26.4375 L 17.917969 23.027344 L 17.917969 17.1875 L 26.082031 20.757812 C 26.332031 20.867188 26.585938 20.867188 26.839844 20.757812 L 35.003906 17.1875 Z M 26.460938 18.851562 L 13.644531 13.257812 L 26.460938 7.660156 L 39.273438 13.257812 Z M 26.460938 18.851562 " fill-opacity="1" fill-rule="nonzero"/><path fill="#000000" d="M 16.96875 30.300781 L 35.953125 30.300781 L 35.953125 32.195312 L 16.96875 32.195312 Z M 16.96875 30.300781 " fill-opacity="1" fill-rule="nonzero"/><path fill="#000000" d="M 11.273438 34.085938 L 41.648438 34.085938 L 41.648438 35.980469 L 11.273438 35.980469 Z M 11.273438 34.085938 " fill-opacity="1" fill-rule="nonzero"/><path fill="#000000" d="M 11.273438 37.875 L 41.648438 37.875 L 41.648438 39.769531 L 11.273438 39.769531 Z M 11.273438 37.875 " fill-opacity="1" fill-rule="nonzero"/><path fill="#000000" d="M 11.273438 41.664062 L 41.648438 41.664062 L 41.648438 43.554688 L 11.273438 43.554688 Z M 11.273438 41.664062 " fill-opacity="1" fill-rule="nonzero"/><path fill="#000000" d="M 11.273438 45.449219 L 41.648438 45.449219 L 41.648438 47.34375 L 11.273438 47.34375 Z M 11.273438 45.449219 " fill-opacity="1" fill-rule="nonzero"/><path fill="#000000" d="M 11.273438 49.238281 L 41.648438 49.238281 L 41.648438 51.128906 L 11.273438 51.128906 Z M 11.273438 49.238281 " fill-opacity="1" fill-rule="nonzero"/><path fill="#000000" d="M 11.273438 53.023438 L 41.648438 53.023438 L 41.648438 54.917969 L 11.273438 54.917969 Z M 11.273438 53.023438 " fill-opacity="1" fill-rule="nonzero"/></svg>